# xmcd
#
# Track frame offsets:
#	150
#	15425
#	37702
#	62289
#	88786
#	332550
#
# Disc length: 4440 seconds
#
# Revision: 1
# Processed by: cddbd v1.5.1PL0 Copyright (c) Steve Scherf et al.
# Submitted via: CDex 1.50Beta5
#
DISCID=37115606
DTITLE=SOLTOMATINA - フリフリ！〜魔法のケチャップダンス〜
DYEAR=1900
DGENRE=Pop
TTITLE0=フリフリ！〜魔法のケチャップダンス〜
TTITLE1=フリフリ！〜魔法のケチャップダンス〜<NRG's Hyper Euro Mix>
TTITLE2=フリフリ！〜魔法のケチャップダンス〜<サワサキヨシヒロ LaTECHNO Mix>
TTITLE3=フリフリ！〜魔法のケチャップダンス〜<Backing Track>
TTITLE4=データ トラック
TTITLE5=データ トラック
EXTD=
EXTT0=
EXTT1=
EXTT2=
EXTT3=
EXTT4=
EXTT5=
PLAYORDER=
